<svg width="32" height="32" xmlns="http://www.w3.org/2000/svg">

 <g>
  <title>background</title>
  <rect fill="none" id="canvas_background" height="402" width="582" y="-1" x="-1"/>
 </g>
 <g>
  <title>Layer 1</title>
  <path stroke="null" id="Arrow_Back" fill-rule="evenodd" fill="#121313" d="m31.106,19.903678l-27.828,0l8.325,-4.790712c0.391,-0.225873 0.391,-0.591546 0,-0.816841c-0.391,-0.225873 -1.024,-0.225873 -1.414,0l-9.9,5.718468c-0.385,0.222407 -0.385,0.594434 0,0.816841l9.9,5.719045c0.391,0.225873 1.024,0.225873 1.414,0c0.391,-0.225873 0.391,-0.591546 0,-0.816841l-8.325,-4.674598l27.828,0c0.552,0 1,-0.258801 1,-0.577681c0,-0.31888 -0.448,-0.577681 -1,-0.577681z" clip-rule="evenodd"/>
 </g>
</svg>